<svg xmlns="http://www.w3.org/2000/svg" width="100" height="100" fill="none" viewBox="0 0 100 100"><path d="M50 0H0V50H50V0Z" fill="#f1eef3"/><path d="M12.274 21.734c.233.233.785.87 1.55 1.718L11.64 26.19l-1.824 1.867 3 2.44 3.352-4.37 1.4 1.612c.573 3 1.252 7.913 1.527 10.607l3.988.636c-.255-1.74-.764-4.328-1.2-6.555l4.582 4.752c.52.526 1.024 1.07 1.506 1.633l2.927-2.927c-.61-.477-1.203-.972-1.782-1.485-2.12-1.867-3.903-3.65-5.643-5.388-.552-.552-1.146-1.188-1.74-1.824.15-3.415 1.04-6.47 3.288-8.72 2.12-2.12 4.985-1.93 6.64-.276 3.33 3.288 2.185 7.488-.997 11.773l3.84 1.294c4.22-6.3 4.35-11.56.064-15.846-3.436-3.394-8.315-3.14-11.582.127-1.9 1.9-3.5 4.688-4.052 8.422-.17-.212-.382-.424-.552-.636-.2-.912-.467-2.037-.552-2.715l-1.782-.212c-1.167-1.506-2.08-2.758-2.546-3.48l-3.2 2.982c.764.552 1.38 1.2 1.994 1.824v.01z" fill="#5b6592"/><path d="M100 0H50v50h50V0z" fill="#f8f6fa"/><path d="M79.075 25.17l-2.78 2.27c.68 1.018 1.485 2.25 2.46 3.224 2.143 2.143 5.303 1.443 8.867-2.12 1.697-1.697 3-3.288 4.03-4.625l-2.6-2.82c-1.252 1.803-2.546 3.437-3.967 4.858-2.27 2.27-3.606 2.206-4.54 1.273-.467-.467-1.04-1.294-1.464-2.058l.004-.002zm-14.15-9.355l-3.5 3c.552.424 1.38 1.336 2.08 2.206l1.018 1.4-1.846 1.973c-.87.87-1.633 1.55-2.843 2.503l2.715 2.588 2.652-2.482 1.358-1.442 1.337 2.227c2.185 3.755 5.028 9.822 5.876 13.216l3.946-1.952c-1.337-3.712-4.243-9.46-6.45-13.195-.662-1.136-1.356-2.254-2.08-3.352 1.25-1.6 2.46-3.267 3.436-4.837L69.975 15a56.05 56.05 0 0 1-2.864 4.22l-.636-.976c-.382-.55-1.146-1.697-1.55-2.44v.01zm7.658 5.155l2.482 2.482c1.188-1.485 2.44-2.864 3.882-4.306 1.294-1.294 2.715-2.46 3.903-3.394l-2.482-2.6c-1.366 1.115-2.676 2.297-3.924 3.543-1.358 1.358-2.78 3-3.86 4.285h-.001z" fill="#5b6592"/><path d="M50 50H0v50h50V50z" fill="#f8f6fa"/><path d="M27.696 58.18l-3.246.106c-.276.53-1.38 1.76-1.973 2.355L11.044 72.074c-.87.863-1.807 1.657-2.8 2.376l2.95 2.95 2.44-2.737L24.684 63.6c.488 1.6.7 5.112.042 7.85l3.967-.445c.594-3.564-.064-8.252-.72-10.904-.127-.5-.233-1.42-.276-1.93l-.001.01zm-5.8 11.52l-3.076 3.076c.785.573 1.4 1.103 2.058 1.76 3.48 3.48 5.218 6.237 4.4 10.798a11.86 11.86 0 0 1-1.06 3.394l4.497-.467c2.673-8.867-1.55-13.3-6.8-18.562h.001z" fill="#5b6592"/><path d="M100 50H50v50h50V50z" fill="#f1eef3"/><path d="M61.002 74.8l3.076 3.076 2.418-2.588 8.76-8.76 2.44-2.27-3.076-3.076a34 34 0 0 1-2.227 2.482l-8.782 8.782c-.72.72-1.76 1.676-2.6 2.355l.001-.001zm8.6 12.155l3.246 3.246 2.524-2.78L87.54 75.235A32.6 32.6 0 0 1 90 73.028l-3.246-3.246c-.636.806-1.485 1.74-2.206 2.46L72.372 84.42l-2.78 2.525z" fill="#5b6592"/></svg>