<svg xmlns="http://www.w3.org/2000/svg" width="10" height="10" viewBox="0 0 10 10" fill="none"><g clip-path="url(#A)"><path d="M.028 9.3c-.032.093-.037.194-.015.3s.07.184.14.253l.002.002c.05.05.107.088.17.115s.132.04.2.04A.53.53 0 0 0 .7 9.972a13.64 13.64 0 0 0 5.235-3.255l3.513-3.513c.175-.174.314-.38.408-.608S10 2.124 10 1.877s-.048-.49-.142-.72S9.625.723 9.45.55s-.38-.313-.61-.407S8.37 0 8.123 0s-.49.05-.718.144-.434.234-.608.408l-.2.2-.44-.44c-.2-.2-.47-.312-.752-.312s-.553.112-.752.312l-2.83 2.83.478.478L5.13.793a.39.39 0 0 1 .549 0l.44.44-2.834 2.834A13.64 13.64 0 0 0 .028 9.301zm7.245-8.27a1.2 1.2 0 0 1 .848-.351 1.2 1.2 0 0 1 .848.351 1.2 1.2 0 0 1 .351.848 1.2 1.2 0 0 1-.351.848l-1.89 1.89L5.385 2.92l1.89-1.89zM4.907 3.396l1.696 1.696L5.457 6.24C4.13 7.564 2.53 8.585.77 9.23c.646-1.76 1.667-3.36 2.99-4.688l1.147-1.147z" fill="#6BA6FF"/></g><defs><clipPath id="A"><path fill="#fff" d="M0 0h10v10H0z"/></clipPath></defs></svg>