<svg xmlns="http://www.w3.org/2000/svg" width="10" height="10" viewBox="0 0 10 10" fill="none"><path fill-rule="evenodd" d="M4.27.953a4.12 4.12 0 0 1 .714 0c.022.002.067.022.086.09l.18.69c.092.35.344.604.623.743.11.054.213.114.313.18a1.17 1.17 0 0 0 .956.169l.69-.19c.07-.02.11.01.122.03a4.04 4.04 0 0 1 .358.618c.01.02.014.07-.037.12l-.51.504c-.257.254-.35.598-.33.9.008.12.008.243 0 .364-.02.312.074.656.33.9l.51.504c.05.05.046.1.037.12a4.06 4.06 0 0 1-.358.619c-.013.018-.054.046-.122.028l-.69-.19a1.17 1.17 0 0 0-.956.169 2.82 2.82 0 0 1-.312.181 1.17 1.17 0 0 0-.624.743l-.18.69c-.018.07-.063.09-.086.09-.237.02-.476.02-.714 0-.022-.002-.067-.023-.086-.09l-.18-.69c-.092-.35-.344-.604-.623-.743a2.81 2.81 0 0 1-.313-.181 1.17 1.17 0 0 0-.956-.169l-.69.19c-.07.02-.11-.01-.122-.03-.137-.195-.257-.402-.358-.618-.01-.02-.014-.07.037-.12l.51-.504c.257-.254.35-.598.33-.9-.008-.12-.008-.243 0-.364.02-.312-.074-.656-.33-.9l-.51-.504c-.05-.05-.046-.1-.037-.12.1-.216.22-.424.358-.62.012-.018.054-.047.122-.028l.69.19a1.17 1.17 0 0 0 .956-.169 2.82 2.82 0 0 1 .313-.181c.28-.14.532-.393.624-.743l.18-.69c.018-.07.063-.09.086-.09zM4.628 0L4.2.02c-.464.04-.806.384-.91.788l-.18.69c-.01.04-.05.1-.132.14-.144.07-.284.152-.417.24-.077.05-.146.056-.187.044l-.69-.19c-.402-.11-.87.012-1.138.394-.17.24-.316.495-.44.76-.197.422-.07.89.227 1.182l.51.504c.03.03.06.092.055.184-.01.16-.01.322 0 .482.006.092-.024.154-.055.184l-.51.504c-.296.293-.424.76-.227 1.182.125.268.273.522.44.76.268.38.735.504 1.138.394l.69-.19c.04-.012.1-.007.187.044.133.09.272.17.418.24.083.04.12.1.132.14l.18.69c.106.404.447.748.91.788.292.025.585.025.876 0 .464-.04.806-.384.91-.788l.18-.69c.01-.04.05-.1.132-.14.144-.07.284-.152.418-.24.077-.05.146-.056.188-.044l.69.19c.402.11.87-.013 1.138-.394.168-.24.316-.493.44-.76.197-.422.07-.89-.227-1.182l-.51-.504c-.03-.03-.06-.092-.055-.184.01-.16.01-.322 0-.482-.006-.092.024-.154.055-.184l.51-.504c.297-.293.424-.76.227-1.182-.124-.266-.27-.52-.44-.76-.268-.38-.735-.504-1.138-.394l-.69.19c-.04.012-.1.007-.187-.044-.134-.09-.273-.17-.418-.24-.083-.04-.12-.1-.132-.14l-.18-.692C5.872.403 5.53.06 5.066.02L4.628 0zm.938 5a.94.94 0 0 1-.275.663c-.176.176-.414.275-.663.275A.94.94 0 0 1 3.691 5a.94.94 0 0 1 .938-.937c.25 0 .487.1.663.275A.94.94 0 0 1 5.566 5zm.938 0c0 .497-.198.974-.55 1.326s-.83.55-1.326.55-.974-.198-1.326-.55-.55-.83-.55-1.326.198-.974.55-1.326.83-.55 1.326-.55.974.198 1.326.55.55.83.55 1.326z" fill="#71758A"/></svg>