<svg xmlns="http://www.w3.org/2000/svg" width="10" height="10" viewBox="0 0 10 10" fill="none"><g clip-path="url(#A)"><path d="M.155 9.843l.002.002c.05.05.107.088.17.115s.132.04.2.04A.53.53 0 0 0 .7 9.972l2.998-1.017L9.45 3.202c.352-.352.55-.83.55-1.326S9.802.9 9.45.55 8.622 0 8.125 0 7.15.198 6.798.55L1.045 6.302.028 9.3c-.032.093-.037.194-.015.3s.07.184.14.253zm7.12-8.816a1.2 1.2 0 0 1 1.694.003 1.2 1.2 0 0 1 .003 1.694l-.757.757L6.52 1.784l.757-.757zM1.635 6.67L6.042 2.26 7.74 3.958 3.33 8.365l-2.568.87.87-2.568z" fill="#71758A"/></g><defs><clipPath id="A"><path fill="#fff" d="M0 0h10v10H0z"/></clipPath></defs></svg>