<svg xmlns="http://www.w3.org/2000/svg" width="10" height="10" viewBox="0 0 10 10" fill="none"><g clip-path="url(#A)"><path d="M6.2 7.778v1.11c0 .295-.1.577-.28.786a.89.89 0 0 1-.673.325H.952a.89.89 0 0 1-.673-.325C.1 9.466 0 9.184 0 8.89V1.11C0 .816.1.534.28.325A.89.89 0 0 1 .952 0h4.286a.89.89 0 0 1 .673.325c.18.208.28.49.28.786v1.11h-.952V1.11H.952V8.89h4.286v-1.11H6.2zm1.2-5.833l-.673.786 1.47 1.714H3.333v1.11h4.844L6.708 7.27l.673.786L10 5 7.38 1.944z" fill="#71758A"/></g><defs><clipPath id="A"><path fill="#fff" d="M0 0h10v10H0z"/></clipPath></defs></svg>