<svg xmlns="http://www.w3.org/2000/svg" width="10" height="10" viewBox="0 0 10 10" fill="#C4C4C4"><path d="M5 6.9c.736 0 1.333-.627 1.333-1.4S5.737 4.1 5 4.1s-1.333.627-1.333 1.4S4.264 6.9 5 6.9zm4.893-1.78c-.55-.895-1.266-1.655-2.068-2.2C6.938 2.318 5.96 2 4.993 2c-.886 0-1.757.266-2.6.8C1.556 3.324.787 4.105.12 5.1a.72.72 0 0 0-.12.397.72.72 0 0 0 .106.39c.55.904 1.258 1.666 2.047 2.202.9.604 1.845.9 2.84.9.973 0 1.954-.316 2.837-.913.8-.542 1.515-1.305 2.064-2.208a.73.73 0 0 0-.002-.76zM5 7.6c-.396 0-.782-.123-1.1-.354a2.08 2.08 0 0 1-.737-.942 2.2 2.2 0 0 1-.114-1.213c.077-.407.268-.782.547-1.075A1.98 1.98 0 0 1 4.6 3.44a1.91 1.91 0 0 1 1.156.119c.365.16.678.428.898.773S7 5.085 7 5.5a2.15 2.15 0 0 1-.586 1.484C6.038 7.378 5.53 7.6 5 7.6z"/></svg>