<svg xmlns="http://www.w3.org/2000/svg" width="10" height="10" viewBox="0 0 10 10" fill="#6BA6FF"><path d="M8.666 9.256a.33.33 0 0 1-.236-.098L1.098 1.82c-.06-.063-.093-.147-.092-.234s.036-.17.098-.232a.33.33 0 0 1 .23-.098c.086-.001.17.032.234.092L8.9 8.686c.047.047.078.106.1.17s.006.132-.02.193a.34.34 0 0 1-.123.15c-.055.037-.12.056-.185.056zM4.833 6.5l-1.08-1.08c-.006-.006-.014-.01-.023-.012s-.017 0-.025.004-.014.01-.018.018-.006.016-.004.025a1.34 1.34 0 0 0 .375.74c.2.2.46.332.74.375.01.001.017 0 .025-.004s.014-.01.018-.018.005-.017.004-.025-.005-.017-.012-.023zm.333-2.495l1.08 1.08c.006.006.014.01.023.012s.018 0 .025-.004.014-.01.018-.018.006-.017.004-.025a1.33 1.33 0 0 0-.376-.74c-.2-.2-.46-.332-.74-.376-.01-.001-.018 0-.025.004s-.014.01-.018.018-.005.017-.004.025.005.017.012.023zm4.73 1.61a.67.67 0 0 0-.002-.725c-.55-.853-1.266-1.578-2.068-2.096-.888-.574-1.867-.877-2.832-.877a4.72 4.72 0 0 0-1.496.246c-.014.004-.026.012-.035.023s-.016.023-.02.037-.003.028.001.042a.08.08 0 0 0 .02.036l.984.985c.01.01.023.018.037.022s.03.004.043 0a2 2 0 0 1 2.4 1.404 1.98 1.98 0 0 1 .017 1.014c-.004.014-.003.03 0 .043s.01.027.02.037L8.38 7.223c.015.015.034.023.055.024s.04-.006.057-.02a7.17 7.17 0 0 0 1.4-1.614zM5 7.254a2 2 0 0 1-1.954-1.576c-.064-.296-.06-.603.01-.897.004-.014.003-.03 0-.043s-.01-.027-.02-.037L1.642 3.307c-.015-.015-.035-.023-.055-.024s-.04.006-.057.02c-.508.434-.98.962-1.4 1.58-.075.108-.117.237-.12.368a.66.66 0 0 0 .106.373c.55.862 1.258 1.587 2.047 2.098.9.576 1.845.868 2.84.868a4.96 4.96 0 0 0 1.513-.241c.014-.004.026-.012.036-.023s.017-.023.02-.037.003-.028-.001-.042a.08.08 0 0 0-.02-.036l-1-1c-.01-.01-.023-.018-.037-.02s-.03-.004-.043 0A2 2 0 0 1 5 7.254z"/></svg>