<svg xmlns="http://www.w3.org/2000/svg" width="10" height="10" viewBox="0 0 10 10" fill="none"><g clip-path="url(#A)" fill-rule="evenodd" fill="#6ba6ff"><path d="M7.352.21c.134-.134.316-.21.505-.21s.37.075.505.21l1.43 1.43c.134.134.21.316.21.505s-.075.37-.21.505L3.362 9.076c-.078.078-.174.138-.28.173L.94 9.963c-.126.042-.26.048-.4.018s-.247-.096-.34-.2-.16-.212-.2-.34-.024-.264.018-.4L.75 6.917c.035-.105.094-.2.173-.28L7.352.21zm.505.505l1.43 1.43L2.857 8.57.715 9.285l.714-2.143L7.857.714z"/><path d="M7.962 3.824L6.176 2.038l.506-.506 1.786 1.786-.505.506h-.001zM1.43 6.428v.357c0 .095.038.186.105.253s.158.105.253.105h.357V7.5c0 .095.038.186.105.253s.158.105.253.105h.357v.357c0 .095.038.186.105.253s.158.105.253.105h.357V7.5c0-.095-.038-.186-.105-.253s-.158-.105-.253-.105h-.357v-.357c0-.095-.038-.186-.105-.253s-.158-.105-.253-.105H1.43z"/></g><defs><clipPath id="A"><path fill="#fff" d="M0 0h10v10H0z"/></clipPath></defs></svg>