<svg xmlns="http://www.w3.org/2000/svg" width="10" height="10" viewBox="0 0 10 10" fill="none"><g clip-path="url(#A)"><path d="M9.608 8.16c-.25-.56-.615-1.07-1.072-1.5a5.02 5.02 0 0 0-1.589-1.013c.812-.572 1.35-1.492 1.35-2.53C8.298 1.394 6.822 0 5 0S1.702 1.394 1.702 3.116c0 1.04.54 1.96 1.367 2.526a5 5 0 0 0-1.605 1.019c-.457.43-.82.94-1.072 1.5A4.45 4.45 0 0 0 0 9.897c0 .013.002.027.007.04a.1.1 0 0 0 .023.033c.01.01.022.017.035.022s.027.008.04.008h.798c.06 0 .105-.044.106-.098.027-.97.44-1.878 1.168-2.567C2.932 6.623 3.934 6.23 5 6.23s2.068.392 2.822 1.104c.73.688 1.14 1.597 1.168 2.567.001.055.048.098.106.098h.798c.014 0 .028-.003.04-.008s.025-.013.035-.022a.1.1 0 0 0 .023-.033c.005-.012.008-.026.007-.04a4.46 4.46 0 0 0-.392-1.736zM5 5.276a2.34 2.34 0 0 1-1.617-.633c-.432-.408-.67-.95-.67-1.528s.238-1.12.67-1.528A2.34 2.34 0 0 1 5 .955a2.34 2.34 0 0 1 1.617.633c.432.408.67.95.67 1.528s-.238 1.12-.67 1.528A2.34 2.34 0 0 1 5 5.276z" fill="#C4C4C4"/></g><defs><clipPath id="A"><path fill="#fff" d="M0 0h10v10H0z"/></clipPath></defs></svg>