<svg xmlns="http://www.w3.org/2000/svg" xmlns:xlink="http://www.w3.org/1999/xlink" width="375" height="517" viewBox="0 0 375 517" fill="none"><g clip-path="url(#A)"><path d="M365.584.087H9.374A9.38 9.38 0 0 0 0 9.467v497.155a9.38 9.38 0 0 0 9.374 9.38h356.2a9.38 9.38 0 0 0 9.374-9.38V9.467a9.38 9.38 0 0 0-9.374-9.38z" fill="#2a2d32"/><g fill="#383c40"><path d="M.043 9.38A9.38 9.38 0 0 1 9.417 0h356.2a9.38 9.38 0 0 1 9.374 9.38v60.034H.043V9.38z"/><use xlink:href="#B"/></g><use xlink:href="#C" stroke="#575a5d" stroke-width="2"/><path d="M134.047 185.73H34.683c-3.624 0-6.562 2.94-6.562 6.565s2.938 6.567 6.562 6.567h99.364c3.624 0 6.562-2.94 6.562-6.567s-2.938-6.565-6.562-6.565z" fill="#383c40"/><path d="M342.15 209.18H32.81a3.75 3.75 0 0 0-3.749 3.752v28.14a3.75 3.75 0 0 0 3.749 3.752h309.34a3.75 3.75 0 0 0 3.75-3.752v-28.14a3.75 3.75 0 0 0-3.75-3.752z" stroke="#575a5d" stroke-width="2"/><path d="M134.047 273.904H34.683c-3.624 0-6.562 2.94-6.562 6.566s2.938 6.567 6.562 6.567h99.364c3.624 0 6.562-2.94 6.562-6.567s-2.938-6.566-6.562-6.566z" fill="#383c40"/><path d="M342.15 297.355H32.81a3.75 3.75 0 0 0-3.749 3.752v28.14A3.75 3.75 0 0 0 32.809 333h309.34a3.75 3.75 0 0 0 3.75-3.752v-28.14a3.75 3.75 0 0 0-3.75-3.752z" stroke="#575a5d" stroke-width="2"/><path d="M134.048 362.08H34.684c-3.624 0-6.562 2.94-6.562 6.566s2.938 6.567 6.562 6.567h99.364c3.623 0 6.56-2.94 6.56-6.567s-2.938-6.566-6.56-6.566z" fill="#383c40"/><path d="M342.15 385.53H32.81a3.75 3.75 0 0 0-3.749 3.752v28.14a3.75 3.75 0 0 0 3.749 3.753h309.34c2.07 0 3.75-1.68 3.75-3.753v-28.14a3.75 3.75 0 0 0-3.75-3.752z" stroke="#575a5d" stroke-width="2"/><path d="M342.15 450.254H32.81a4.69 4.69 0 0 0-4.687 4.69v28.14a4.69 4.69 0 0 0 4.687 4.69h309.34a4.69 4.69 0 0 0 4.687-4.69v-28.14a4.69 4.69 0 0 0-4.687-4.69z" fill="#575a5d"/></g><defs><clipPath id="A"><path fill="#fff" d="M0 0h375v517H0z"/></clipPath><path id="B" d="M134.048 97.555H34.684c-3.624 0-6.562 2.94-6.562 6.566s2.938 6.567 6.562 6.567h99.364c3.623 0 6.56-2.94 6.56-6.567s-2.938-6.566-6.56-6.566z"/><path id="C" d="M342.15 121.006H32.81a3.75 3.75 0 0 0-3.749 3.752v28.14a3.75 3.75 0 0 0 3.749 3.753h309.34c2.07 0 3.75-1.68 3.75-3.753v-28.14a3.75 3.75 0 0 0-3.75-3.752z"/></defs></svg>