<svg xmlns="http://www.w3.org/2000/svg" xmlns:xlink="http://www.w3.org/1999/xlink" width="375" height="517" viewBox="0 0 375 517" fill="none"><path d="M365.584.087H9.374A9.38 9.38 0 0 0 0 9.467v497.155a9.38 9.38 0 0 0 9.374 9.38h356.2a9.38 9.38 0 0 0 9.374-9.38V9.467a9.38 9.38 0 0 0-9.374-9.38z" fill="#fff"/><g fill="#dbd9e0"><path d="M.043 9.38A9.38 9.38 0 0 1 9.417 0h356.2a9.38 9.38 0 0 1 9.374 9.38v60.034H.043V9.38z"/><use xlink:href="#B"/></g><use xlink:href="#C" stroke="#dbd9e0" stroke-width="2"/><path d="M134.047 185.73H34.684c-3.624 0-6.562 2.94-6.562 6.565s2.938 6.567 6.562 6.567h99.363c3.624 0 6.562-2.94 6.562-6.567s-2.938-6.565-6.562-6.565z" fill="#dbd9e0"/><use xlink:href="#D" stroke="#dbd9e0" stroke-width="2"/><use xlink:href="#B" y="176.349" fill="#dbd9e0"/><use xlink:href="#D" y="88.175" stroke="#dbd9e0" stroke-width="2"/><use xlink:href="#B" y="264.525" fill="#dbd9e0"/><use xlink:href="#C" y="264.524" stroke="#dbd9e0" stroke-width="2"/><path d="M342.15 450.254H32.81a4.69 4.69 0 0 0-4.687 4.69v28.14a4.69 4.69 0 0 0 4.687 4.69h309.34a4.69 4.69 0 0 0 4.687-4.69v-28.14a4.69 4.69 0 0 0-4.687-4.69z" fill="#c4c4c4"/><defs ><path id="B" d="M134.047 97.555H34.684c-3.624 0-6.562 2.94-6.562 6.566s2.938 6.567 6.562 6.567h99.363c3.624 0 6.562-2.94 6.562-6.567s-2.938-6.566-6.562-6.566z"/><path id="C" d="M342.15 121.006H32.81a3.75 3.75 0 0 0-3.75 3.752v28.14a3.75 3.75 0 0 0 3.75 3.753h309.34c2.07 0 3.75-1.68 3.75-3.753v-28.14a3.75 3.75 0 0 0-3.75-3.752z"/><path id="D" d="M342.15 209.18H32.81a3.75 3.75 0 0 0-3.75 3.752v28.14a3.75 3.75 0 0 0 3.75 3.752h309.34a3.75 3.75 0 0 0 3.75-3.752v-28.14a3.75 3.75 0 0 0-3.75-3.752z"/></defs></svg>