<svg xmlns="http://www.w3.org/2000/svg" width="10" height="10" viewBox="0 0 10 10" fill="none"><path d="M9.677 3.583L6.68 3.147 5.34.43c-.037-.074-.097-.135-.17-.17a.38.38 0 0 0-.507.171L3.32 3.147.323 3.583c-.083.012-.158.05-.216.1A.38.38 0 0 0 0 3.961a.38.38 0 0 0 .114.266l2.17 2.115-.512 2.986c-.012.07-.004.14.022.206s.07.122.128.163.125.066.195.07.14-.01.203-.043L5 8.316l2.68 1.4c.073.04.158.052.24.038.205-.035.344-.23.308-.436l-.512-2.986 2.17-2.115c.06-.058.098-.133.1-.216.032-.207-.112-.398-.32-.43zM6.804 6.044l.426 2.483L5 7.356 2.77 8.53l.426-2.483-1.804-1.76 2.494-.362L5 1.665l1.115 2.26 2.494.362-1.804 1.758z" fill="#6ba6ff"/></svg>