<svg xmlns="http://www.w3.org/2000/svg" width="10" height="10" viewBox="0 0 10 10" fill="none"><g clip-path="url(#A)"><path d="M9.677 3.345L6.68 2.912 5.34.21c-.037-.074-.097-.134-.17-.17a.38.38 0 0 0-.507.17L3.32 2.912.323 3.345c-.083.012-.158.05-.216.11-.07.072-.108.168-.107.268s.042.195.114.265L2.283 6.1 1.77 9.06c-.012.07-.004.14.022.205s.07.12.128.162a.38.38 0 0 0 .398.028L5 8.054l2.68 1.402c.073.04.158.052.24.038.205-.035.344-.23.308-.433L7.717 6.1l2.17-2.104c.06-.058.098-.133.1-.215.032-.206-.112-.396-.32-.426zm-2.873 2.45l.426 2.47L5 7.1 2.77 8.266l.426-2.47-1.804-1.75 2.494-.36L5 1.438l1.115 2.247 2.494.36-1.804 1.75z" fill="#6ba6ff"/></g><defs><clipPath id="A"><path fill="#fff" d="M0 0h10v10H0z"/></clipPath></defs></svg>